<svg id="Capa_1" data-name="Capa 1" xmlns="http://www.w3.org/2000/svg" viewBox="0 0 121 121"><defs><style>.cls-1{fill:#3ab7a3;}.cls-2{fill:#2fb5e4;fill-rule:evenodd;}.cls-3{fill:#fff;}</style></defs><title>ICONS2_svg</title><circle class="cls-1" cx="60.64" cy="60.64" r="57.9"/><path class="cls-2" d="M76.62,95.24a1.51,1.51,0,0,1-1.31-.76l-2-3.54-1.11,1.9a1.5,1.5,0,0,1-1.3.74H68.09a1.48,1.48,0,0,1-1.3-.76l-1.41-2.44a1.51,1.51,0,0,1,0-1.5l1.79-3.06h-2.8a1.48,1.48,0,0,1-1.3-.76l-1.4-2.45a1.49,1.49,0,0,1,0-1.5l.43-.73H58.89l.43.73a1.51,1.51,0,0,1,0,1.5l-1.4,2.45a1.51,1.51,0,0,1-1.31.76h-2.8l1.79,3.06a1.51,1.51,0,0,1,0,1.5l-1.4,2.44a1.51,1.51,0,0,1-1.31.76H50.12a1.5,1.5,0,0,1-1.3-.74l-1.11-1.9-2,3.54a1.51,1.51,0,0,1-1.3.76H41.5a1.5,1.5,0,0,1-1.3-.76L38.76,92a1.47,1.47,0,0,1,0-1.49l2-3.58-2.2,0a1.5,1.5,0,0,1-1.29-.75l-1.4-2.45a1.52,1.52,0,0,1,0-1.49l1.4-2.45A1.52,1.52,0,0,1,38.62,79l3.51,0-1.41-2.47a1.45,1.45,0,0,1,0-1.48l1.39-2.45a1.51,1.51,0,0,1,1.31-.76h.84L42.65,69l-.4.71a1.5,1.5,0,0,1-1.31.77h-2.8a1.5,1.5,0,0,1-1.3-.76l-1.39-2.43-1.71,3.06a1.51,1.51,0,0,1-1.31.76h-2.8a1.48,1.48,0,0,1-1.3-.75L26.93,68a1.53,1.53,0,0,1,0-1.48l1.09-2H23.94a1.5,1.5,0,0,1-1.3-.75L21.2,61.24a1.45,1.45,0,0,1,0-1.48l1.44-2.53a1.5,1.5,0,0,1,1.3-.75H28l-1.09-1.95a1.53,1.53,0,0,1,0-1.48l1.4-2.45a1.5,1.5,0,0,1,1.3-.75h2.8a1.51,1.51,0,0,1,1.31.76l1.71,3.06,1.39-2.43a1.5,1.5,0,0,1,1.3-.76h2.8a1.52,1.52,0,0,1,1.31.77l.4.71,1.61-2.82h-.84a1.51,1.51,0,0,1-1.31-.76L40.72,46a1.47,1.47,0,0,1,0-1.49L42.13,42l-3.51,0a1.52,1.52,0,0,1-1.31-.75l-1.4-2.45a1.52,1.52,0,0,1,0-1.49l1.4-2.45a1.5,1.5,0,0,1,1.29-.75l2.2,0-2-3.58a1.5,1.5,0,0,1,0-1.49l1.45-2.52a1.48,1.48,0,0,1,1.3-.76h2.89a1.51,1.51,0,0,1,1.3.76l2,3.54,1.11-1.9a1.49,1.49,0,0,1,1.29-.74h2.8a1.51,1.51,0,0,1,1.31.76l1.39,2.44a1.49,1.49,0,0,1,0,1.5l-1.79,3.06h2.8a1.51,1.51,0,0,1,1.31.76l1.39,2.45a1.49,1.49,0,0,1,0,1.5l-.43.73h3.22l-.43-.73a1.49,1.49,0,0,1,0-1.5l1.39-2.45a1.51,1.51,0,0,1,1.31-.76h2.8l-1.79-3.06a1.51,1.51,0,0,1,0-1.5l1.4-2.45a1.52,1.52,0,0,1,1.31-.75h2.79a1.5,1.5,0,0,1,1.3.74l1.11,1.9,2-3.54a1.51,1.51,0,0,1,1.3-.76H79.5a1.5,1.5,0,0,1,1.3.76L82.24,29a1.47,1.47,0,0,1,0,1.49l-2,3.58,2.2,0a1.5,1.5,0,0,1,1.29.75l1.4,2.45a1.52,1.52,0,0,1,0,1.49l-1.4,2.45a1.52,1.52,0,0,1-1.31.75l-3.51,0,1.42,2.47a1.5,1.5,0,0,1,0,1.48l-1.4,2.45a1.51,1.51,0,0,1-1.31.76h-.84L78.35,52l.4-.71a1.52,1.52,0,0,1,1.31-.77h2.8a1.5,1.5,0,0,1,1.3.76l1.39,2.43,1.71-3.06a1.51,1.51,0,0,1,1.31-.76h2.8a1.48,1.48,0,0,1,1.3.75l1.4,2.45a1.5,1.5,0,0,1,0,1.48L93,56.48h4.07a1.5,1.5,0,0,1,1.3.75l1.44,2.53a1.45,1.45,0,0,1,0,1.48l-1.44,2.53a1.5,1.5,0,0,1-1.3.75H93l1.09,2a1.5,1.5,0,0,1,0,1.48l-1.4,2.45a1.48,1.48,0,0,1-1.3.75h-2.8a1.51,1.51,0,0,1-1.31-.76l-1.71-3.06-1.39,2.43a1.48,1.48,0,0,1-1.3.76h-2.8a1.52,1.52,0,0,1-1.31-.77l-.4-.71-1.61,2.82h.84a1.51,1.51,0,0,1,1.31.76l1.4,2.44a1.52,1.52,0,0,1,0,1.49L78.87,79l3.51,0a1.52,1.52,0,0,1,1.31.75l1.4,2.45a1.52,1.52,0,0,1,0,1.49l-1.4,2.45a1.5,1.5,0,0,1-1.29.75l-2.2,0,2,3.58a1.47,1.47,0,0,1,0,1.49L80.8,94.48a1.5,1.5,0,0,1-1.3.76Z"/><path class="cls-3" d="M79.5,27.26l1.44,2.53-3.31,5.79,4.75.05,1.4,2.44-1.4,2.45-7.54-.07-1.29,2.27,4,0L79,45.2l-1.4,2.45-3.44,0L78.37,55l1.69-3h2.8l1.4,2.45-2,3.54h2.59l3.71-6.62h2.8l1.4,2.44L90.43,58h6.63L98.5,60.5,97.06,63H90.43l2.34,4.19-1.4,2.44h-2.8L84.86,63H82.27l2,3.55L82.86,69h-2.8l-1.69-3-4.23,7.39,3.44,0L79,75.8l-1.4,2.45-4,0,1.29,2.26,7.54-.06,1.4,2.45-1.4,2.44-4.75,0,3.31,5.8L79.5,93.74H76.62l-3.32-5.8-2.42,4.14H68.09l-1.4-2.45,3.83-6.56-1.3-2.26-2,3.51h-2.8L63,81.87l1.74-3H56.28l1.74,3-1.4,2.45H53.83l-2-3.51-1.3,2.26,3.83,6.56-1.4,2.45H50.12L47.7,87.94l-3.31,5.8H41.5l-1.44-2.53,3.31-5.79-4.75,0-1.4-2.44,1.4-2.45,7.54.07,1.29-2.27-4,0L42,75.8l1.4-2.45,3.44,0L42.63,66l-1.69,3h-2.8l-1.4-2.45,2-3.54H36.14l-3.71,6.62h-2.8l-1.4-2.44L30.57,63H23.94L22.5,60.5,23.94,58h6.63l-2.34-4.19,1.4-2.44h2.8L36.14,58h2.59l-2-3.55L38.14,52h2.8l1.69,3,4.22-7.39-3.43,0L42,45.2l1.4-2.45,4,0-1.29-2.27-7.54.07-1.4-2.45,1.4-2.44,4.75-.05-3.31-5.79,1.44-2.53h2.89l3.31,5.8,2.41-4.14h2.8l1.4,2.45-3.83,6.56,1.3,2.26,2-3.51h2.79L58,39.13l-1.74,3h8.44l-1.74-3,1.4-2.45h2.79l2,3.51,1.3-2.26-3.83-6.56,1.4-2.45h2.79l2.42,4.14,3.31-5.8H79.5m0-3H76.61A3,3,0,0,0,74,25.77l-.75,1.31a3,3,0,0,0-2.38-1.16H68.09a3,3,0,0,0-2.61,1.51l-1.4,2.45a3,3,0,0,0,0,3l.46.8h-.18a3,3,0,0,0-2.61,1.52L60.5,37.42,59.23,35.2a3,3,0,0,0-2.61-1.52h-.19l.47-.8a3,3,0,0,0,0-3l-1.4-2.45a3,3,0,0,0-2.6-1.51H50.11a3,3,0,0,0-2.37,1.17L47,25.77a3,3,0,0,0-2.6-1.51H41.5a3,3,0,0,0-2.61,1.51L37.45,28.3a3,3,0,0,0,0,3l.79,1.38A3,3,0,0,0,36,34.14l-1.4,2.45a3,3,0,0,0,0,3L36,42a3,3,0,0,0,2.6,1.51h.92l-.12.2a3,3,0,0,0,0,3L40.72,49H38.14a3,3,0,0,0-2.6,1.52l-.08.13L35,49.88a3,3,0,0,0-2.61-1.53h-2.8A3,3,0,0,0,27,49.86l-1.4,2.44A3,3,0,0,0,25.47,55H23.94a3,3,0,0,0-2.6,1.51L19.9,59a3,3,0,0,0,0,3l1.44,2.52A3,3,0,0,0,23.94,66h1.53a3,3,0,0,0,.16,2.67L27,71.14a3,3,0,0,0,2.61,1.51h2.8A3,3,0,0,0,35,71.12l.42-.74.08.13A3,3,0,0,0,38.14,72h2.58l-1.31,2.29a3,3,0,0,0,0,3l.12.2h-.92A3,3,0,0,0,36,79l-1.4,2.45a3,3,0,0,0,0,3L36,86.86a3,3,0,0,0,2.23,1.49l-.79,1.38a3,3,0,0,0,0,3l1.45,2.53a3,3,0,0,0,2.6,1.51h2.89A3,3,0,0,0,47,95.23l.75-1.32a3,3,0,0,0,2.38,1.17h2.79a3,3,0,0,0,2.61-1.51l1.4-2.45a3,3,0,0,0,0-3l-.47-.8h.19a3,3,0,0,0,2.61-1.51l1.27-2.23,1.27,2.22a3,3,0,0,0,2.61,1.52h.18l-.46.8a3,3,0,0,0,0,3l1.4,2.45a3,3,0,0,0,2.61,1.51h2.79a3,3,0,0,0,2.38-1.17L74,95.23a3,3,0,0,0,2.61,1.51H79.5a3,3,0,0,0,2.6-1.51l1.45-2.53a3,3,0,0,0,0-3l-.79-1.38A3,3,0,0,0,85,86.86l1.4-2.44a3,3,0,0,0,0-3L85,79a3,3,0,0,0-2.6-1.51h-.92l.12-.2a3,3,0,0,0,0-3L80.28,72h2.58a3,3,0,0,0,2.6-1.51l.08-.13.42.74a3,3,0,0,0,2.61,1.53h2.8A3,3,0,0,0,94,71.14l1.4-2.45A3,3,0,0,0,95.53,66h1.53a3,3,0,0,0,2.6-1.51L101.1,62a3,3,0,0,0,0-3l-1.44-2.52A3,3,0,0,0,97.06,55H95.53a3,3,0,0,0-.16-2.67L94,49.86a3,3,0,0,0-2.61-1.51h-2.8A3,3,0,0,0,86,49.88l-.42.74-.08-.13A3,3,0,0,0,82.86,49H80.28l1.31-2.29a3,3,0,0,0,0-3l-.12-.2h.92A3,3,0,0,0,85,42l1.4-2.45a3,3,0,0,0,0-3L85,34.14a3,3,0,0,0-2.23-1.49l.79-1.38a3,3,0,0,0,0-3L82.1,25.77a3,3,0,0,0-2.6-1.51Z"/></svg>