<svg id="Capa_1" data-name="Capa 1" xmlns="http://www.w3.org/2000/svg" viewBox="0 0 121 121"><defs><style>.cls-1{fill:#3ab7a3;}.cls-2{fill:#2fb5e4;fill-rule:evenodd;}.cls-3{fill:#fff;}</style></defs><title>ICONS2_svg</title><circle class="cls-1" cx="60.64" cy="60.64" r="57.9"/><path class="cls-2" d="M36.4,90.86a1.5,1.5,0,0,1-1.5-1.5v-.17c0-3.69,0-12.35,6.77-12.86,1.43-.12,2.94-.29,4.54-.46a124.3,124.3,0,0,1,14.33-1,156.13,156.13,0,0,1,19,1.42c6.45.81,6.45,8,6.45,12.81v.21a1.51,1.51,0,0,1-1.5,1.5Zm43-16.15h-.19a153.42,153.42,0,0,0-18.65-1.39,128.06,128.06,0,0,0-15.09,1c-1.22.14-2.39.27-3.52.38h-.15a1.57,1.57,0,0,1-.7-.17c-3.72-2-2.88-5.35-2.33-7.59a9.87,9.87,0,0,0,.39-2.14c0-1.24-1-2.16-2.81-3.66-2.64-2.21-6.25-5.23-6.25-11.75,0-8.45,6.38-15.33,14.23-15.33,5.26,0,9.36,1.8,12.49,5.5-1.93-4.61-3.47-8.8-3.47-11a7,7,0,0,1,7.13-7.18c4.38,0,7.21,2.66,7.21,6.77,0,2.07-1.39,6.08-3.19,10.52,3.13-3.1,7.36-4.6,12.87-4.6,8,0,13.57,6.3,13.57,15.33,0,5.15-3,8.35-5.44,10.92-1.81,1.92-3.37,3.58-3.37,5.56a9.13,9.13,0,0,0,.4,2.23C83,70.06,83.79,73,80,74.6A1.62,1.62,0,0,1,79.38,74.71ZM71.32,53a1.27,1.27,0,0,0-.18.39,13.63,13.63,0,0,1-.81,2.46,4.85,4.85,0,0,0,1.19-2A2.19,2.19,0,0,0,71.32,53ZM49.59,53a2.28,2.28,0,0,0-.19.79,4.37,4.37,0,0,0,1.09,1.9,11.63,11.63,0,0,1-.72-2.37A1.19,1.19,0,0,0,49.59,53Z"/><path class="cls-3" d="M60.46,22.88c3.51,0,5.71,2,5.71,5.27,0,3.05-3.83,11.86-5.71,16.15-1.71-4-5.63-12.69-5.63-15.74a5.55,5.55,0,0,1,5.63-5.68M77.35,35.57c6.85,0,12.07,5.27,12.07,13.83,0,8.32-8.81,10.79-8.81,16.48,0,3,2.53,5.77-1.23,7.33a154,154,0,0,0-18.84-1.4,166.37,166.37,0,0,0-18.76,1.4c-3.75-2-1.14-5.68-1.14-8.4,0-4.86-9.06-5.52-9.06-15.41,0-7.66,5.79-13.83,12.73-13.83,6.44,0,9.79,2.88,11.91,5.68s3,5.77,4.32,5.77c1.06,0,1.63-2.89,3.67-5.77S70,35.57,77.35,35.57M68.13,63.24c1.22,0,1-2.47,1.3-3.29.74-2.31,3.59-4.2,3.59-6.18,0-.91-.57-2.47-1.55-2.47A2.08,2.08,0,0,0,69.68,53c-.57,2.63-2.45,5-2.61,7.49-.09,1-.09,2.72,1.06,2.72m-15.34,0c1.14,0,1.14-1.73,1.06-2.72-.24-2.47-2.12-4.86-2.61-7.49-.16-.74-.9-1.73-1.79-1.73s-1.55,1.56-1.55,2.47c0,2,2.85,3.87,3.59,6.18.24.82.08,3.29,1.3,3.29m7.75,13.18a156,156,0,0,1,18.84,1.4c5.23.66,5.15,6.92,5.15,11.54H36.4c0-3.71-.09-11.13,5.38-11.54,5.06-.41,10.85-1.4,18.76-1.4m-.08-56.54a8.58,8.58,0,0,0-8.63,8.68,20.39,20.39,0,0,0,1.45,6.14,18.09,18.09,0,0,0-9-2.13c-8.67,0-15.73,7.55-15.73,16.83,0,7.21,4.08,10.64,6.78,12.9,1.17,1,2.28,1.9,2.28,2.51a10.15,10.15,0,0,1-.34,1.78c-.51,2-1.51,6.09,2.1,8.67-6,2.06-6,10.54-6,13.94v.16a3,3,0,0,0,3,3H84.53a3,3,0,0,0,3-3v-.21c0-4.21,0-11.69-5.73-13.82,3.56-2.23,2.6-5.93,2.16-7.6a8.21,8.21,0,0,1-.35-1.85c0-1.32,1.13-2.58,3-4.53,2.61-2.76,5.85-6.2,5.85-12,0-9.91-6.2-16.83-15.07-16.83a21.69,21.69,0,0,0-9.72,2,21.36,21.36,0,0,0,1.54-6.46c0-4.95-3.5-8.27-8.71-8.27Z"/></svg>