<svg id="Capa_1" data-name="Capa 1" xmlns="http://www.w3.org/2000/svg" viewBox="0 0 121 121"><defs><style>.cls-1{fill:#3ab7a3;}.cls-2{fill:#2fb5e4;fill-rule:evenodd;}.cls-3{fill:#fff;}</style></defs><title>ICONS2_svg</title><circle class="cls-1" cx="60.64" cy="60.64" r="57.9"/><path class="cls-2" d="M60.64,105.73a10.38,10.38,0,0,1-8.31-4.18,1.2,1.2,0,0,1-.15-.24h-.42A3.73,3.73,0,0,1,48,97.62a3.57,3.57,0,0,1,.74-2.19,3.61,3.61,0,0,1,0-4.38A3.57,3.57,0,0,1,48,88.86a3.68,3.68,0,0,1,1.28-2.77,5.68,5.68,0,0,1-2-3.4,1.52,1.52,0,0,1,0-.21l-.32-3V79.3c0-5.68-3.12-14.75-8.79-25.53l-.28-.53a25.33,25.33,0,0,1-3.07-10l-.11-2.3a25.54,25.54,0,0,1,7.61-18.3,25.94,25.94,0,0,1,18.39-7.55A26,26,0,0,1,79,22.64a25.51,25.51,0,0,1,7.62,18.23l-.11,2.3a26.74,26.74,0,0,1-3,10.09c-.11.2-9.13,16.28-9.13,26v.16l-.32,3a1.52,1.52,0,0,1,0,.21,5.68,5.68,0,0,1-2,3.4,3.68,3.68,0,0,1,1.28,2.77,3.63,3.63,0,0,1-.74,2.19,3.63,3.63,0,0,1,.74,2.19,3.57,3.57,0,0,1-.74,2.19,3.57,3.57,0,0,1,.74,2.19,3.74,3.74,0,0,1-3.77,3.69h-.41a1.2,1.2,0,0,1-.15.24A10.36,10.36,0,0,1,60.64,105.73Z"/><path class="cls-3" d="M60.64,16.59A24.51,24.51,0,0,1,78,23.71a24,24,0,0,1,7.18,17.16L85,43.1a25.21,25.21,0,0,1-2.84,9.46c-.1.16-9.31,16.52-9.31,26.74l-.31,3c-.5,2-1.54,3-3.09,3H51.79c-1.55,0-2.59-1-3.09-3l-.31-3c0-10.22-9.21-26.58-9.23-26.74a24,24,0,0,1-2.92-9.46l-.1-2.23a24,24,0,0,1,7.17-17.16,24.45,24.45,0,0,1,17.33-7.12m8.87,70.08a2.19,2.19,0,1,1,0,4.38,2.19,2.19,0,1,1,0,4.38,2.19,2.19,0,1,1,0,4.38H51.76a2.19,2.19,0,1,1,0-4.38,2.19,2.19,0,1,1,0-4.38,2.19,2.19,0,1,1,0-4.38H69.51m-1.77,14a8.86,8.86,0,0,1-14.21,0H67.74m-7.1-87.07a27.43,27.43,0,0,0-19.44,8,27,27,0,0,0-8.06,19.29V41l.1,2.23s0,.09,0,.14A26.86,26.86,0,0,0,36.5,53.94c.07.16.16.33.27.53,5.48,10.41,8.62,19.46,8.62,24.83,0,.11,0,.21,0,.31l.32,3a2,2,0,0,0,.07.41,8,8,0,0,0,1.46,3.15,5.05,5.05,0,0,0-.75,2.66A5.2,5.2,0,0,0,47,91.05a5.14,5.14,0,0,0,0,4.38,5.18,5.18,0,0,0,4.41,7.37,11.85,11.85,0,0,0,18.48,0,5.18,5.18,0,0,0,4.4-7.37,5.14,5.14,0,0,0,0-4.38,5.2,5.2,0,0,0,.49-2.19A5.05,5.05,0,0,0,74,86.2a7.9,7.9,0,0,0,1.46-3.15,2,2,0,0,0,.07-.41l.32-3c0-.1,0-.2,0-.31,0-7.85,6.43-20.89,8.91-25.26a.35.35,0,0,0,0-.08A28.11,28.11,0,0,0,88,43.38c0-.05,0-.09,0-.14l.1-2.23s0-.09,0-.14a27,27,0,0,0-8.06-19.29,27.54,27.54,0,0,0-19.44-8Zm7.1,90.07Z"/></svg>