<svg id="Capa_1" data-name="Capa 1" xmlns="http://www.w3.org/2000/svg" viewBox="0 0 121 121"><defs><style>.cls-1{fill:#3ab7a3;}.cls-2{fill:#2fb5e4;fill-rule:evenodd;}.cls-3{fill:#fff;}</style></defs><title>ICONS2_svg</title><circle class="cls-1" cx="60.64" cy="60.64" r="57.9"/><path class="cls-2" d="M59.93,93.9a4.56,4.56,0,0,1-4.53-4.56,4.5,4.5,0,0,1,.7-2.46,4.53,4.53,0,0,1-1.91.43h0A4.58,4.58,0,0,1,51,79.52a4.46,4.46,0,0,1,3.2-1.36,4.58,4.58,0,0,1,4.56,4.55A4.63,4.63,0,0,1,58,85.18a4.57,4.57,0,1,1,2,8.72Zm6.82-6.42a4.58,4.58,0,1,1,4.53-4.59,4.56,4.56,0,0,1-4.53,4.59ZM60.33,82.7A1.5,1.5,0,0,1,59.08,82c-.47-.71-.37-.94.58-3.09l.72-1.64c-.49-.14-.79-.58-1.69-1.9-.44-.64-1-1.51-1.79-2.6a10.56,10.56,0,0,0-8.54-4.92c-3,0-6.09,1.42-9.2,4.23a1.5,1.5,0,0,1-1.92.08,1.5,1.5,0,0,1-.41-1.89c2.37-4.48,2.77-8.11,1.2-10.8-3.3-5.64-14.13-6-14.24-6a1.5,1.5,0,0,1-1-2.55c3.2-3.28,4-7.26,2.52-11.84A20.59,20.59,0,0,0,21.87,33a1.5,1.5,0,0,1,.1-2.07,1.51,1.51,0,0,1,1-.41,1.48,1.48,0,0,1,1,.42c.05.05,5.28,5,11.17,5a10,10,0,0,0,5.95-2,1.49,1.49,0,0,1,.88-.28,1.5,1.5,0,0,1,1.44,1.92c-1.33,4.56-1.15,8,.55,10.29,2.2,2.92,6.58,3.36,9,3.36a16.43,16.43,0,0,0,5.69-.84,1.46,1.46,0,0,1,.75-.2,1.5,1.5,0,0,1,1,2.62c-.52.46-1,.92-1.43,1.37a1.47,1.47,0,0,1,.92.11,14.47,14.47,0,0,0,4.31.48c2.55,0,8.77-.41,11.39-4.29,1.72-2.54,1.63-6.25-.27-11a1.49,1.49,0,0,1,2.15-1.84,11.25,11.25,0,0,0,5.76,1.61c6.84,0,12.54-6.25,12.59-6.31a1.51,1.51,0,0,1,1.12-.5,1.48,1.48,0,0,1,.95.34,1.5,1.5,0,0,1,.25,2.06c-.34.46-8.31,11.4.75,19a1.5,1.5,0,0,1,.47,1.59,1.48,1.48,0,0,1-1.27,1.05c-.12,0-12,1.35-14.93,7.68-1.39,2.95-.59,6.72,2.36,11.18a1.5,1.5,0,0,1-2.14,2c-3.32-2.46-6.54-3.7-9.56-3.7-3.91,0-7.45,2.18-9.7,6-.72,1.21-1.28,2.17-1.69,2.88-1.1,1.89-1.26,2.18-2.16,2.19Zm-2.5-29.05c-3.26,4.58-2,9.32,1.37,15.81q1.44,2.76,2.19,4.15l.32.59c3.58-8.49,4.1-14.1-3.24-19.32A1.53,1.53,0,0,1,57.83,53.65Z"/><path class="cls-3" d="M97,31.91S87.71,44.33,98,53c0,0-25.88,2.74-13.66,21.18-3.84-2.84-7.36-4-10.45-4-4.93,0-8.76,3-11,6.73-1.69,2.84-2.5,4.33-2.56,4.33s.87-2,2.67-6.23c3.34-7.86,5.11-15.06-3.68-21.32a15,15,0,0,0,4.94.62c7.09,0,18.31-2.83,12.51-17.37a12.67,12.67,0,0,0,6.52,1.82c7.62,0,13.71-6.81,13.71-6.81M68,69.5a.2.2,0,0,0,.14-.06,232.78,232.78,0,0,0,23-28.08.21.21,0,0,0,0-.29.19.19,0,0,0-.12,0,.21.21,0,0,0-.17.09c-.51.75-1,1.48-1.55,2.22L69.75,67.13c-1.19,1.27-1.89,2-1.92,2a.21.21,0,0,0,0,.29.22.22,0,0,0,.15.06M23,32s5.61,5.44,12.21,5.44A11.45,11.45,0,0,0,42,35.16C38.3,48,46.59,50.73,53,50.73a16.71,16.71,0,0,0,6.45-1c-7.58,6.6-5.35,13.28-1.62,20.47,2,3.86,3,5.69,3,5.69s-.94-1.35-2.72-3.91a12.06,12.06,0,0,0-9.77-5.56c-3.08,0-6.55,1.32-10.2,4.62C47.88,52.6,23.83,52,23.83,52,32.59,43,23,32,23,32M52.81,65.81a.21.21,0,0,0,.16-.08.22.22,0,0,0,0-.29s-.8-.71-2.09-1.91L31.1,42.65l-1.74-2.14a.21.21,0,0,0-.16-.08.18.18,0,0,0-.13,0,.22.22,0,0,0,0,.29,223.09,223.09,0,0,0,23.64,25,.19.19,0,0,0,.13.06M42,35.16h0m12.13,44.5a3.08,3.08,0,0,1,0,6.15h0a3.08,3.08,0,0,1,0-6.15h0m12.58.17a3.08,3.08,0,0,1,0,6.15h0a3.08,3.08,0,0,1,0-6.15h0m-6.82,6.41a3.08,3.08,0,0,1,0,6.16h0a3.08,3.08,0,0,1,0-6.16h0M97,28.91a3,3,0,0,0-2.23,1h0c0,.06-5.33,5.82-11.48,5.82a9.62,9.62,0,0,1-5-1.41,3.07,3.07,0,0,0-1.52-.41,3,3,0,0,0-2,.72A3,3,0,0,0,74,38c1.71,4.29,1.86,7.52.43,9.63-2.29,3.37-8.35,3.63-10.15,3.63-.85,0-1.58,0-2.18-.1A3,3,0,0,0,58,47.05a16.13,16.13,0,0,1-5,.68c-2.15,0-6-.36-7.81-2.76-1.38-1.84-1.5-4.82-.35-8.85a3.12,3.12,0,0,0,.16-1,3,3,0,0,0-3-3h0a3,3,0,0,0-1.79.59,8.4,8.4,0,0,1-5,1.67c-5.24,0-10.07-4.55-10.12-4.59a3,3,0,0,0-4.36,4.11,19,19,0,0,1,3.17,5.79c1.3,4,.57,7.32-2.21,10.16A3,3,0,0,0,23.76,55c2.8.08,10.6,1.18,13,5.26,1.29,2.21.87,5.35-1.23,9.34a3,3,0,0,0,4.66,3.63c2.83-2.56,5.58-3.85,8.19-3.85a9.11,9.11,0,0,1,7.31,4.28c.75,1.08,1.35,1.95,1.78,2.59s.76,1.1,1.09,1.49c-.09.21-.17.4-.25.57a6,6,0,0,0-4.12-1.64h0a6.08,6.08,0,0,0-.23,12.15,4.87,4.87,0,0,0,0,.54,6.07,6.07,0,0,0,6,6.05,6,6,0,0,0,4.3-1.82A6.06,6.06,0,0,0,66,89.29c0-.12,0-.24,0-.36a5.29,5.29,0,0,0,.8,0,6.08,6.08,0,0,0,0-12.15h-.17a9.42,9.42,0,0,1,7.31-3.69c2.69,0,5.61,1.15,8.67,3.41a3,3,0,0,0,3.85-.24,3,3,0,0,0,.43-3.83c-2.64-4-3.4-7.27-2.25-9.72,2.17-4.61,10.86-6.51,13.73-6.81a3,3,0,0,0,1.61-5.29c-3.32-2.78-4.44-6.25-3.41-10.59a19.78,19.78,0,0,1,2.9-6.37A3,3,0,0,0,97,28.91Zm0,6ZM61.5,70.62l-1-1.85c-2.7-5.2-3.93-8.93-2.52-12.37,5.34,4,5.68,8,3.49,14.22Z"/></svg>