<svg id="Capa_1" data-name="Capa 1" xmlns="http://www.w3.org/2000/svg" viewBox="0 0 121 121"><defs><style>.cls-1{fill:#3ab7a3;}.cls-2{fill:#2fb5e4;fill-rule:evenodd;}.cls-3{fill:#fff;}</style></defs><title>ICONS2_svg</title><circle class="cls-1" cx="60.64" cy="60.64" r="57.9"/><path class="cls-2" d="M50.55,100.58a11.25,11.25,0,0,1-7.35-2.67,12.46,12.46,0,0,1-2.38-3.49A5.48,5.48,0,0,0,39,92a7.87,7.87,0,0,0-2.91-1A13.67,13.67,0,0,1,32,89.76a11.32,11.32,0,0,1-5.09-7.29,6.56,6.56,0,0,1,1.27-5.72c1.68-2,9.87-6,17.58-9.48-7,1.46-14.59,2.86-18.1,2.86A7,7,0,0,1,26,70a6.63,6.63,0,0,1-4.39-3.88,11.34,11.34,0,0,1-.15-8.9A12.35,12.35,0,0,1,24,53.85a5.37,5.37,0,0,0,1.73-2.45,7.55,7.55,0,0,0,0-3.07,13.73,13.73,0,0,1,0-4.33c.54-3.23,4.36-8.11,8.9-8.11a6,6,0,0,1,2.28.45c2.41,1,8.7,7.5,14.37,13.75-4.19-7.33-8.44-15.35-8.62-17.94a6.46,6.46,0,0,1,1.87-4.93,11.61,11.61,0,0,1,7.88-3.42,6.19,6.19,0,0,1,1,.07,12.21,12.21,0,0,1,4,1.43,5.89,5.89,0,0,0,2.66.9h.2a7.58,7.58,0,0,0,2.91-.94,13.92,13.92,0,0,1,4.1-1.38,6.24,6.24,0,0,1,1-.07,11.61,11.61,0,0,1,7.87,3.42A6.42,6.42,0,0,1,78,32.15c-.18,2.59-4.43,10.61-8.62,18,5.67-6.26,12-12.79,14.38-13.76A5.94,5.94,0,0,1,86,35.89c4.53,0,8.36,4.88,8.9,8.11a12.33,12.33,0,0,1-.13,4.23,5.41,5.41,0,0,0,0,3,7.39,7.39,0,0,0,1.79,2.48,14.22,14.22,0,0,1,2.58,3.48,11.39,11.39,0,0,1-.16,8.9A6.61,6.61,0,0,1,94.62,70a6.93,6.93,0,0,1-1.67.16c-3.51,0-11.1-1.4-18.11-2.86,7.71,3.48,15.91,7.48,17.58,9.48a6.6,6.6,0,0,1,1.28,5.72,11.36,11.36,0,0,1-5.1,7.29,12.18,12.18,0,0,1-4.06,1.18,5.34,5.34,0,0,0-2.83,1,7.64,7.64,0,0,0-1.81,2.47,13.6,13.6,0,0,1-2.51,3.53A11.23,11.23,0,0,1,70,100.58a6.94,6.94,0,0,1-6.19-3C62.47,95.33,61.21,86.34,60.3,78c-.92,8.39-2.18,17.38-3.56,19.58A6.94,6.94,0,0,1,50.55,100.58Z"/><path class="cls-3" d="M68.2,25.3c3.26,0,8.54,2.58,8.26,6.75C76.14,36.56,60.3,62.39,60.3,62.39S44.45,36.56,44.14,32.05c-.29-4.17,5-6.75,8.25-6.75a6.06,6.06,0,0,1,.76.05c3,.45,4.4,2.35,6.86,2.35h.29c2.64-.16,4-1.87,7.14-2.34a6.19,6.19,0,0,1,.76-.05M86,37.39c3.6,0,7,4.18,7.42,6.86.51,3.1-1,5.06,0,7.52s3,3.28,4.42,6.09.81,9.55-3.57,10.65a5.51,5.51,0,0,1-1.3.12c-7.14,0-32.51-6.13-32.51-6.13S80.08,39.42,84.27,37.73A4.58,4.58,0,0,1,86,37.39m-51.38,0a4.62,4.62,0,0,1,1.72.34C40.52,39.42,60.15,62.5,60.15,62.5s-25.36,6.13-32.5,6.13a5.6,5.6,0,0,1-1.31-.12c-4.38-1.1-5-7.83-3.57-10.65s3.76-3.52,4.42-6.09-.52-4.42,0-7.52c.44-2.69,3.81-6.86,7.42-6.86M60.39,62.67s28,11.57,30.88,15S90.69,87,87.91,88.43s-5.11.64-7.16,2.32-2.17,3.89-4.41,6.09A9.72,9.72,0,0,1,70,99.08a5.52,5.52,0,0,1-4.92-2.34c-2.39-3.84-4.73-34.07-4.73-34.07m-.19,0S57.87,92.9,55.47,96.74a5.5,5.5,0,0,1-4.92,2.34,9.74,9.74,0,0,1-6.3-2.24c-2.24-2.2-2.18-4.67-4.41-6.09s-4.37-.87-7.15-2.32-6.27-7.25-3.37-10.72,30.88-15,30.88-15m8-40.37a7.79,7.79,0,0,0-1.2.09,15.17,15.17,0,0,0-4.52,1.5,6.17,6.17,0,0,1-2.36.8H60A4.69,4.69,0,0,1,58,24a13.46,13.46,0,0,0-4.44-1.58,7.69,7.69,0,0,0-1.2-.09,13.06,13.06,0,0,0-9,3.9,8,8,0,0,0-2.27,6.05c.11,1.57,1.43,4.7,3.32,8.47-3-3-5.56-5.19-7-5.77a7.53,7.53,0,0,0-2.84-.56h0c-5.39,0-9.75,5.55-10.38,9.36a15.25,15.25,0,0,0,0,4.77,6.19,6.19,0,0,1,0,2.5c-.14.56-.54,1-1.34,1.77a13.61,13.61,0,0,0-2.87,3.73,12.84,12.84,0,0,0,.14,10.2,8.15,8.15,0,0,0,5.39,4.7,8.36,8.36,0,0,0,2,.21,51.23,51.23,0,0,0,7.05-.76C30.94,72.82,28,74.58,27,75.78a8.2,8.2,0,0,0-1.6,7,12.8,12.8,0,0,0,5.88,8.32,15.61,15.61,0,0,0,4.54,1.44,6.12,6.12,0,0,1,2.38.74,4.27,4.27,0,0,1,1.26,1.82A13.69,13.69,0,0,0,42.15,99a12.64,12.64,0,0,0,8.4,3.1A8.38,8.38,0,0,0,58,98.33c.83-1.33,1.6-4.64,2.29-8.8.68,4.16,1.45,7.47,2.28,8.79A8.38,8.38,0,0,0,70,102.08,12.66,12.66,0,0,0,78.45,99a15.42,15.42,0,0,0,2.77-3.88,6.13,6.13,0,0,1,1.44-2,4.21,4.21,0,0,1,2.12-.65,13.54,13.54,0,0,0,4.51-1.33,12.8,12.8,0,0,0,5.88-8.32,8.17,8.17,0,0,0-1.6-7c-1-1.2-3.92-3-7.68-4.91a51.19,51.19,0,0,0,7.06.76,8.27,8.27,0,0,0,2-.21,8.16,8.16,0,0,0,5.4-4.7,12.84,12.84,0,0,0,.13-10.2,15.37,15.37,0,0,0-2.83-3.83,6.42,6.42,0,0,1-1.49-2,4.27,4.27,0,0,1,0-2.22,13.48,13.48,0,0,0,.12-4.71c-.63-3.81-5-9.36-10.37-9.36h0a7.54,7.54,0,0,0-2.85.56c-1.45.58-4,2.81-7,5.77,1.89-3.77,3.21-6.9,3.32-8.47a7.92,7.92,0,0,0-2.27-6.05,13.06,13.06,0,0,0-9-3.9Z"/></svg>