<?xml version="1.0" encoding="utf-8"?>
<!-- Generator: Adobe Illustrator 22.1.0, SVG Export Plug-In . SVG Version: 6.00 Build 0)  -->
<svg version="1.1" xmlns="http://www.w3.org/2000/svg" xmlns:xlink="http://www.w3.org/1999/xlink" x="0px" y="0px"
	 viewBox="0 0 657 160" style="enable-background:new 0 0 657 160;" xml:space="preserve">
<style type="text/css">
	.st0{display:none;}
	.st1{display:inline;fill:#FFFFFF;}
</style>
<g id="Layer_1">
	<path d="M180.4,141v5.4H155v-34h25.2v5.4H161v8.7H178v5.4H161v9.1H180.4L180.4,141z M212.3,146.4l-18.7-24.2v24.2h-5.9v-34h5.5
		l18.2,23.5v-23.5h5.9v34H212.3L212.3,146.4z M240.6,146.4v-34h6v28.5h17.9v5.5H240.6L240.6,146.4z M297,146.4l-3.5-8.2h-16.1
		l-3.5,8.2h-6.1l15-34.3h5.5l15,34.3H297L297,146.4z M285.5,119.2l-5.8,13.6h11.7L285.5,119.2L285.5,119.2z M349.4,139.8v6.6h-25.9
		v-34h25.7v6.6h-18.2v7h16v6.6h-16v7.3H349.4L349.4,139.8z M379.8,140.8c-0.6,1.3-1.5,2.4-2.6,3.3c-1.1,0.9-2.4,1.6-3.9,2
		c-1.5,0.5-3.2,0.7-5.1,0.7c-2.6,0-5.1-0.4-7.6-1.3c-2.5-0.9-4.8-2.3-6.8-4.1l4.4-5.3c1.6,1.3,3.2,2.3,4.8,3
		c1.6,0.7,3.4,1.1,5.4,1.1c1.6,0,2.8-0.3,3.6-0.9c0.9-0.6,1.3-1.3,1.3-2.4V137c0-0.5-0.1-0.9-0.3-1.3c-0.2-0.4-0.5-0.7-1-1
		c-0.5-0.3-1.2-0.6-2.1-1c-0.9-0.3-2.1-0.7-3.5-1c-1.7-0.5-3.3-0.9-4.7-1.4c-1.4-0.5-2.6-1.1-3.6-1.9c-1-0.8-1.7-1.7-2.3-2.8
		c-0.5-1.1-0.8-2.5-0.8-4.2v-0.1c0-1.6,0.3-3,0.9-4.2c0.6-1.2,1.4-2.3,2.5-3.2c1.1-0.9,2.3-1.6,3.8-2.1c1.5-0.5,3.1-0.7,4.8-0.7
		c2.5,0,4.8,0.4,6.9,1.1c2.1,0.7,4,1.8,5.8,3.2l-3.9,5.6c-1.5-1-3-1.9-4.5-2.5c-1.5-0.6-2.9-0.9-4.4-0.9c-1.5,0-2.6,0.3-3.3,0.9
		c-0.7,0.6-1.1,1.3-1.1,2.1v0.1c0,0.5,0.1,1,0.3,1.4c0.2,0.4,0.6,0.8,1.2,1.1c0.6,0.3,1.3,0.6,2.3,0.9c1,0.3,2.2,0.6,3.6,1
		c1.7,0.5,3.3,1,4.6,1.5c1.4,0.6,2.5,1.2,3.4,2c0.9,0.8,1.6,1.7,2.1,2.8c0.5,1.1,0.7,2.3,0.7,3.8v0.1
		C380.7,138,380.4,139.5,379.8,140.8L379.8,140.8z M408.1,119.7c-1.4-0.7-2.9-1-4.6-1c-1.4,0-2.7,0.3-4,0.8
		c-1.2,0.6-2.3,1.3-3.1,2.3c-0.9,1-1.6,2.1-2,3.4c-0.5,1.3-0.7,2.6-0.7,4.1v0.1c0,1.5,0.2,2.8,0.7,4.1c0.5,1.3,1.2,2.4,2,3.4
		c0.9,1,1.9,1.7,3.1,2.3c1.2,0.6,2.6,0.9,4,0.9c1.9,0,3.6-0.4,4.9-1.1c1.3-0.7,2.7-1.7,4-2.9l4.8,4.8c-0.9,0.9-1.8,1.8-2.7,2.5
		c-0.9,0.7-2,1.4-3.1,1.9c-1.1,0.5-2.3,0.9-3.7,1.2c-1.3,0.3-2.8,0.4-4.5,0.4c-2.5,0-4.8-0.5-7-1.4c-2.1-0.9-4-2.1-5.5-3.7
		c-1.6-1.6-2.8-3.4-3.6-5.6c-0.9-2.1-1.3-4.4-1.3-6.8v-0.1c0-2.4,0.4-4.7,1.3-6.8c0.9-2.1,2.1-4,3.6-5.6c1.6-1.6,3.4-2.9,5.6-3.8
		c2.2-0.9,4.6-1.4,7.2-1.4c1.6,0,3.1,0.1,4.4,0.4c1.3,0.3,2.5,0.6,3.5,1.1c1.1,0.5,2.1,1,3,1.6c0.9,0.6,1.8,1.4,2.5,2.1l-4.8,5.5
		C410.8,121.3,409.4,120.4,408.1,119.7L408.1,119.7z M451.2,138.3c-0.7,1.9-1.7,3.5-3,4.8c-1.3,1.3-2.9,2.2-4.7,2.9
		c-1.8,0.6-3.9,1-6.2,1c-4.6,0-8.2-1.3-10.8-3.8c-2.6-2.5-3.9-6.3-3.9-11.3v-19.5h7.4v19.3c0,2.8,0.7,4.9,2,6.3
		c1.3,1.4,3.1,2.1,5.4,2.1c2.3,0,4.1-0.7,5.4-2c1.3-1.4,2-3.4,2-6.1v-19.5h7.4v19.2C452.2,134.1,451.9,136.4,451.2,138.3
		L451.2,138.3z M485.8,139.8v6.6h-25.9v-34h25.7v6.6h-18.2v7h16v6.6h-16v7.3H485.8L485.8,139.8z M492.5,146.4v-34h7.4v27.1h17v6.9
		H492.5L492.5,146.4z M547.9,146.4l-3.1-7.6h-14.4l-3.1,7.6h-7.6l14.6-34.3h6.9l14.6,34.3H547.9L547.9,146.4z M537.6,121.1l-4.5,11
		h9L537.6,121.1L537.6,121.1z"/>
	<path id="TM_2_" d="M619.3,123.8v0.9h-2.5v6.4h-1v-6.4h-2.5v-0.9H619.3z M620.2,123.8h1.4l2.1,6.2l2.1-6.2h1.4v7.3h-0.9v-4.3
		c0-0.2,0-0.4,0-0.7c0-0.3,0-0.7,0-1.1l-2.1,6.1h-1l-2.1-6.1v0.2c0,0.2,0,0.5,0,0.8c0,0.4,0,0.6,0,0.8v4.3h-0.9V123.8z"/>
	<path id="Discovery_2_" d="M147.1,54.6c0,25.4-19.5,45-47.7,45H72.1c5.5-3.7,10.1-8.6,13.4-14.4h13.9c18.8,0,31.2-12.7,31.2-30.4
		c0-17.7-12.3-30.6-31.2-30.6H81.7v13.2c-2.6-3.2-5.6-6.1-9.1-8.5c-2.1-1.5-4.4-2.7-6.7-3.8V9.9h33.5
		C127.6,9.9,147.1,29.2,147.1,54.6z M156.1,100.1h15.5V32.4h-15.5V100.1z M229.2,66.6c-2-1.5-4.3-2.8-6.7-3.8c-2.5-1-5-1.9-7.4-2.7
		c-2-0.7-3.9-1.3-5.7-1.9c-1.8-0.6-3.5-1.3-4.9-2c-1.4-0.7-2.5-1.5-3.4-2.4c-0.9-0.9-1.3-1.9-1.3-3.1v-0.2c0-2,0.8-3.6,2.5-4.9
		c1.7-1.3,4-1.9,7-1.9c2.8,0,5.9,0.6,9.2,1.7c3.3,1.2,6.6,2.7,9.9,4.7l6.2-11c-3.6-2.4-7.6-4.3-11.9-5.6c-4.4-1.4-8.7-2.1-13-2.1
		c-3.3,0-6.5,0.5-9.4,1.4c-3,0.9-5.5,2.3-7.7,4.1c-2.2,1.8-3.9,4-5.1,6.5c-1.2,2.5-1.9,5.4-1.9,8.7v0.3c0,3.3,0.6,6,1.9,8.2
		c1.3,2.2,2.9,4.1,4.9,5.6c2,1.5,4.3,2.7,6.8,3.7c2.5,0.9,5,1.8,7.5,2.4c2,0.6,3.9,1.2,5.7,1.7c1.8,0.6,3.5,1.2,4.9,1.9
		c1.4,0.7,2.5,1.6,3.3,2.5c0.8,0.9,1.2,2.1,1.2,3.3v0.3c0,2.2-0.9,4-2.8,5.3c-1.8,1.3-4.4,2-7.8,2c-3.5,0-7.2-0.7-11-2.1
		c-3.8-1.4-7.6-3.5-11.2-6.2l-6.9,10.5c4.3,3.3,8.9,5.9,13.9,7.6c5,1.7,9.9,2.6,14.8,2.6c3.5,0,6.8-0.4,9.9-1.3c3.1-0.9,5.7-2.2,8-4
		c2.3-1.8,4-3.9,5.3-6.6c1.3-2.6,1.9-5.8,1.9-9.4v-0.3c0-3.1-0.6-5.7-1.9-7.8C232.9,69.9,231.2,68.1,229.2,66.6z M379,52.5
		c1.8,4.2,2.7,8.8,2.7,13.7v0.3c0,4.8-0.9,9.3-2.8,13.6c-1.8,4.3-4.4,8-7.6,11.2c-3.2,3.2-7,5.7-11.5,7.6c-4.4,1.9-9.3,2.8-14.5,2.8
		c-5.1,0-9.9-0.9-14.3-2.8c-4.4-1.8-8.2-4.3-11.4-7.5c-3.2-3.2-5.7-6.9-7.5-11.2c-1.8-4.3-2.7-8.8-2.7-13.6v-0.3
		c0-4.9,0.9-9.5,2.8-13.7c1.8-4.3,4.4-8,7.6-11.2c3.2-3.2,7-5.8,11.4-7.6c4.4-1.9,9.2-2.8,14.4-2.8s10,0.9,14.4,2.8
		c4.4,1.8,8.2,4.4,11.4,7.6C374.7,44.5,377.2,48.3,379,52.5z M366.2,66.4c0-3-0.5-5.8-1.5-8.5c-1-2.7-2.5-5-4.3-6.9
		c-1.8-2-4-3.5-6.5-4.7c-2.5-1.2-5.3-1.7-8.4-1.7c-3.1,0-5.9,0.6-8.4,1.7c-2.5,1.2-4.7,2.7-6.5,4.6c-1.8,1.9-3.2,4.2-4.1,6.8
		c-0.9,2.6-1.4,5.4-1.4,8.4v0.3c0,2.9,0.5,5.7,1.5,8.3c1,2.7,2.5,5,4.3,7c1.8,2,4,3.6,6.5,4.7c2.5,1.2,5.3,1.7,8.3,1.7
		c3.2,0,6-0.6,8.5-1.7c2.5-1.2,4.7-2.7,6.5-4.7c1.8-2,3.2-4.2,4.1-6.9c0.9-2.6,1.4-5.4,1.4-8.3V66.4z M417.2,82.2L399,32.4h-16.7
		l27.8,68.2h14l27.7-68.2h-16.3L417.2,82.2z M516.9,53.5c1.4,4.4,2.1,9,2.1,13.9c0,0.7,0,1.4-0.1,2.1c0,0.7-0.1,1.5-0.2,2.2h-49.8
		c0.9,5.6,3.1,9.8,6.6,12.8c3.6,3,7.8,4.4,12.9,4.4c3.8,0,7.2-0.7,10-2.1c2.8-1.4,5.6-3.4,8.3-6l9.1,8.1c-3.3,3.8-7.1,6.9-11.6,9.2
		c-4.5,2.3-9.9,3.5-16.1,3.5c-4.9,0-9.4-0.9-13.7-2.6c-4.2-1.7-7.9-4.1-11-7.2c-3.1-3.1-5.6-6.8-7.4-11.1c-1.8-4.3-2.7-9.1-2.7-14.3
		v-0.3c0-4.9,0.8-9.4,2.4-13.7c1.6-4.3,3.9-8,6.9-11.2c3-3.2,6.4-5.7,10.5-7.6c4-1.8,8.5-2.8,13.3-2.8c5.4,0,10.1,1,14.2,2.9
		c4.1,2,7.4,4.6,10.1,7.9C513.5,45.2,515.5,49.1,516.9,53.5z M503.5,59.9c-0.3-2.5-0.8-3.2-1.7-5.4c-0.8-2.2-2-4.1-3.5-5.7
		c-1.5-1.6-3.2-2.9-5.2-3.8c-2-0.9-4.3-1.3-6.9-1.3c-4.8,0-8.7,1.6-11.9,4.9c-3.1,3.3-5,6-5.7,11.3H503.5z M278.8,88.2
		c-11.9,0-20.3-9.7-20.3-21.9c0-11.9,8.2-21.7,19.5-21.7c7.8,0,12.8,3.5,17.6,8.5l9.6-10.4C299,35.7,291,31,278.2,31
		C257.9,31,243,47.1,243,66.5c0,19.4,14.9,35.1,35,35.1c13.2,0,21-5.3,27.7-12.7l-9.4-9.2C291.5,84.7,286.1,88.2,278.8,88.2z
		 M546,43.6V32.4h-15.5v67.7H546V74.4c0-4.5,0.4-8.5,1.7-11.8c4.7-12.3,17.7-15.8,24.4-16.8l-5.3-12.9
		C561.4,33.7,551.9,36.3,546,43.6z M627.1,32.4l-17.4,49.7l-16.2-49.7H577l25.2,67.3l-0.2,0.5c0,0-5.1,13.7-9.7,17
		c-3.5,1.8-11.8,1.7-14.9,1.5v12.7c5.5,0,18.3,0.3,22.4-2.3c5.2-3.3,6.4-4.7,9.9-11.9c3.9-7.8,33.5-84.7,33.5-84.7H627.1z"/>
	<circle cx="48.9" cy="64.2" r="35.8"/>
</g>
<g id="Layer_2" class="st0">
	<path class="st1" d="M178.6,139v5.4h-25.4v-34h25.2v5.4h-19.3v8.7h17.1v5.4h-17.1v9.1H178.6L178.6,139z M210.4,144.4l-18.7-24.2
		v24.2h-5.9v-34h5.5l18.2,23.5v-23.5h5.9v34H210.4L210.4,144.4z M238.8,144.4v-34h6v28.5h17.9v5.5H238.8L238.8,144.4z M295.1,144.4
		l-3.5-8.2h-16.1l-3.5,8.2H266l15-34.3h5.5l15,34.3H295.1L295.1,144.4z M283.6,117.2l-5.8,13.6h11.7L283.6,117.2L283.6,117.2z
		 M347.5,137.8v6.6h-25.9v-34h25.7v6.6h-18.2v7h16v6.6h-16v7.3H347.5L347.5,137.8z M377.9,138.8c-0.6,1.3-1.5,2.4-2.6,3.3
		c-1.1,0.9-2.4,1.6-3.9,2c-1.5,0.5-3.2,0.7-5.1,0.7c-2.6,0-5.1-0.4-7.6-1.3c-2.5-0.9-4.8-2.3-6.8-4.1l4.4-5.3c1.6,1.3,3.2,2.3,4.8,3
		c1.6,0.7,3.4,1.1,5.4,1.1c1.6,0,2.8-0.3,3.6-0.9c0.9-0.6,1.3-1.3,1.3-2.4V135c0-0.5-0.1-0.9-0.3-1.3c-0.2-0.4-0.5-0.7-1-1
		c-0.5-0.3-1.2-0.6-2.1-1c-0.9-0.3-2.1-0.7-3.5-1c-1.7-0.5-3.3-0.9-4.7-1.4c-1.4-0.5-2.6-1.1-3.6-1.9c-1-0.8-1.7-1.7-2.3-2.8
		c-0.5-1.1-0.8-2.5-0.8-4.2v-0.1c0-1.6,0.3-3,0.9-4.2c0.6-1.2,1.4-2.3,2.5-3.2c1.1-0.9,2.3-1.6,3.8-2.1c1.5-0.5,3.1-0.7,4.8-0.7
		c2.5,0,4.8,0.4,6.9,1.1c2.1,0.7,4,1.8,5.8,3.2l-3.9,5.6c-1.5-1-3-1.9-4.5-2.5c-1.5-0.6-2.9-0.9-4.4-0.9c-1.5,0-2.6,0.3-3.3,0.9
		c-0.7,0.6-1.1,1.3-1.1,2.1v0.1c0,0.5,0.1,1,0.3,1.4c0.2,0.4,0.6,0.8,1.2,1.1c0.6,0.3,1.3,0.6,2.3,0.9c1,0.3,2.2,0.6,3.6,1
		c1.7,0.5,3.3,1,4.6,1.5c1.4,0.6,2.5,1.2,3.4,2c0.9,0.8,1.6,1.7,2.1,2.8c0.5,1.1,0.7,2.3,0.7,3.8v0.1
		C378.9,136,378.5,137.5,377.9,138.8L377.9,138.8z M406.2,117.7c-1.4-0.7-2.9-1-4.6-1c-1.4,0-2.7,0.3-4,0.8
		c-1.2,0.6-2.3,1.3-3.1,2.3c-0.9,1-1.6,2.1-2,3.4c-0.5,1.3-0.7,2.6-0.7,4.1v0.1c0,1.5,0.2,2.8,0.7,4.1c0.5,1.3,1.2,2.4,2,3.4
		c0.9,1,1.9,1.7,3.1,2.3c1.2,0.6,2.6,0.9,4,0.9c1.9,0,3.6-0.4,4.9-1.1c1.3-0.7,2.7-1.7,4-2.9l4.8,4.8c-0.9,0.9-1.8,1.8-2.7,2.5
		c-0.9,0.7-2,1.4-3.1,1.9c-1.1,0.5-2.3,0.9-3.7,1.2c-1.3,0.3-2.8,0.4-4.5,0.4c-2.5,0-4.8-0.5-7-1.4c-2.1-0.9-4-2.1-5.5-3.7
		c-1.6-1.6-2.8-3.4-3.6-5.6c-0.9-2.1-1.3-4.4-1.3-6.8v-0.1c0-2.4,0.4-4.7,1.3-6.8c0.9-2.1,2.1-4,3.6-5.6c1.6-1.6,3.4-2.9,5.6-3.8
		c2.2-0.9,4.6-1.4,7.2-1.4c1.6,0,3.1,0.1,4.4,0.4c1.3,0.3,2.5,0.6,3.5,1.1c1.1,0.5,2.1,1,3,1.6c0.9,0.6,1.8,1.4,2.5,2.1l-4.8,5.5
		C408.9,119.3,407.6,118.4,406.2,117.7L406.2,117.7z M449.3,136.3c-0.7,1.9-1.7,3.5-3,4.8c-1.3,1.3-2.9,2.2-4.7,2.9
		c-1.8,0.6-3.9,1-6.2,1c-4.6,0-8.2-1.3-10.8-3.8c-2.6-2.5-3.9-6.3-3.9-11.3v-19.5h7.4v19.3c0,2.8,0.7,4.9,2,6.3
		c1.3,1.4,3.1,2.1,5.4,2.1c2.3,0,4.1-0.7,5.4-2c1.3-1.4,2-3.4,2-6.1v-19.5h7.4v19.2C450.4,132.1,450,134.4,449.3,136.3L449.3,136.3z
		 M483.9,137.8v6.6H458v-34h25.7v6.6h-18.2v7h16v6.6h-16v7.3H483.9L483.9,137.8z M490.6,144.4v-34h7.4v27.1h17v6.9H490.6
		L490.6,144.4z M546.1,144.4l-3.1-7.6h-14.4l-3.1,7.6h-7.6l14.6-34.3h6.9l14.6,34.3H546.1L546.1,144.4z M535.8,119.1l-4.5,11h9
		L535.8,119.1L535.8,119.1z"/>
	<path id="TM_3_" class="st1" d="M617.4,121.8v0.9H615v6.4h-1v-6.4h-2.5v-0.9H617.4z M618.3,121.8h1.4l2.1,6.2l2.1-6.2h1.4v7.3h-0.9
		v-4.3c0-0.2,0-0.4,0-0.7c0-0.3,0-0.7,0-1.1l-2.1,6.1h-1l-2.1-6.1v0.2c0,0.2,0,0.5,0,0.8c0,0.4,0,0.6,0,0.8v4.3h-0.9V121.8z"/>
	<path id="Discovery_3_" class="st1" d="M145.2,52.6c0,25.4-19.5,45-47.7,45H70.2c5.5-3.7,10.1-8.6,13.4-14.4h13.9
		c18.8,0,31.2-12.7,31.2-30.4c0-17.7-12.3-30.6-31.2-30.6H79.8v13.2c-2.6-3.2-5.6-6.1-9.1-8.5c-2.1-1.5-4.4-2.7-6.7-3.8V7.9h33.5
		C125.7,7.9,145.2,27.2,145.2,52.6z M154.2,98.1h15.5V30.4h-15.5V98.1z M227.3,64.6c-2-1.5-4.3-2.8-6.7-3.8c-2.5-1-5-1.9-7.4-2.7
		c-2-0.7-3.9-1.3-5.7-1.9c-1.8-0.6-3.5-1.3-4.9-2c-1.4-0.7-2.5-1.5-3.4-2.4c-0.9-0.9-1.3-1.9-1.3-3.1v-0.2c0-2,0.8-3.6,2.5-4.9
		c1.7-1.3,4-1.9,7-1.9c2.8,0,5.9,0.6,9.2,1.7c3.3,1.2,6.6,2.7,9.9,4.7l6.2-11c-3.6-2.4-7.6-4.3-11.9-5.6c-4.4-1.4-8.7-2.1-13-2.1
		c-3.3,0-6.5,0.5-9.4,1.4c-3,0.9-5.5,2.3-7.7,4.1c-2.2,1.8-3.9,4-5.1,6.5c-1.2,2.5-1.9,5.4-1.9,8.7v0.3c0,3.3,0.6,6,1.9,8.2
		c1.3,2.2,2.9,4.1,4.9,5.6c2,1.5,4.3,2.7,6.8,3.7c2.5,0.9,5,1.8,7.5,2.4c2,0.6,3.9,1.2,5.7,1.7c1.8,0.6,3.5,1.2,4.9,1.9
		c1.4,0.7,2.5,1.6,3.3,2.5c0.8,0.9,1.2,2.1,1.2,3.3v0.3c0,2.2-0.9,4-2.8,5.3c-1.8,1.3-4.4,2-7.8,2c-3.5,0-7.2-0.7-11-2.1
		c-3.8-1.4-7.6-3.5-11.2-6.2l-6.9,10.5c4.3,3.3,8.9,5.9,13.9,7.6c5,1.7,9.9,2.6,14.8,2.6c3.5,0,6.8-0.4,9.9-1.3c3.1-0.9,5.7-2.2,8-4
		c2.3-1.8,4-3.9,5.3-6.6c1.3-2.6,1.9-5.8,1.9-9.4v-0.3c0-3.1-0.6-5.7-1.9-7.8C231,67.9,229.3,66.1,227.3,64.6z M377.1,50.5
		c1.8,4.2,2.7,8.8,2.7,13.7v0.3c0,4.8-0.9,9.3-2.8,13.6c-1.8,4.3-4.4,8-7.6,11.2c-3.2,3.2-7,5.7-11.5,7.6c-4.4,1.9-9.3,2.8-14.5,2.8
		c-5.1,0-9.9-0.9-14.3-2.8c-4.4-1.8-8.2-4.3-11.4-7.5c-3.2-3.2-5.7-6.9-7.5-11.2c-1.8-4.3-2.7-8.8-2.7-13.6v-0.3
		c0-4.9,0.9-9.5,2.8-13.7c1.8-4.3,4.4-8,7.6-11.2c3.2-3.2,7-5.8,11.4-7.6c4.4-1.9,9.2-2.8,14.4-2.8s10,0.9,14.4,2.8
		c4.4,1.8,8.2,4.4,11.4,7.6C372.8,42.5,375.3,46.3,377.1,50.5z M364.3,64.4c0-3-0.5-5.8-1.5-8.5c-1-2.7-2.5-5-4.3-6.9
		c-1.8-2-4-3.5-6.5-4.7c-2.5-1.2-5.3-1.7-8.4-1.7c-3.1,0-5.9,0.6-8.4,1.7c-2.5,1.2-4.7,2.7-6.5,4.6c-1.8,1.9-3.2,4.2-4.1,6.8
		c-0.9,2.6-1.4,5.4-1.4,8.4v0.3c0,2.9,0.5,5.7,1.5,8.3c1,2.7,2.5,5,4.3,7c1.8,2,4,3.6,6.5,4.7c2.5,1.2,5.3,1.7,8.3,1.7
		c3.2,0,6-0.6,8.5-1.7c2.5-1.2,4.7-2.7,6.5-4.7c1.8-2,3.2-4.2,4.1-6.9c0.9-2.6,1.4-5.4,1.4-8.3V64.4z M415.4,80.2l-18.2-49.8h-16.7
		l27.8,68.2h14L450,30.4h-16.3L415.4,80.2z M515,51.5c1.4,4.4,2.1,9,2.1,13.9c0,0.7,0,1.4-0.1,2.1c0,0.7-0.1,1.5-0.2,2.2H467
		c0.9,5.6,3.1,9.8,6.6,12.8c3.6,3,7.8,4.4,12.9,4.4c3.8,0,7.2-0.7,10-2.1c2.8-1.4,5.6-3.4,8.3-6L514,87c-3.3,3.8-7.1,6.9-11.6,9.2
		c-4.5,2.3-9.9,3.5-16.1,3.5c-4.9,0-9.4-0.9-13.7-2.6c-4.2-1.7-7.9-4.1-11-7.2c-3.1-3.1-5.6-6.8-7.4-11.1c-1.8-4.3-2.7-9.1-2.7-14.3
		v-0.3c0-4.9,0.8-9.4,2.4-13.7c1.6-4.3,3.9-8,6.9-11.2c3-3.2,6.4-5.7,10.5-7.6c4-1.8,8.5-2.8,13.3-2.8c5.4,0,10.1,1,14.2,2.9
		c4.1,2,7.4,4.6,10.1,7.9C511.6,43.2,513.6,47.1,515,51.5z M501.6,57.9c-0.3-2.5-0.8-3.2-1.7-5.4c-0.8-2.2-2-4.1-3.5-5.7
		c-1.5-1.6-3.2-2.9-5.2-3.8c-2-0.9-4.3-1.3-6.9-1.3c-4.8,0-8.7,1.6-11.9,4.9c-3.1,3.3-5,6-5.7,11.3H501.6z M276.9,86.2
		c-11.9,0-20.3-9.7-20.3-21.9c0-11.9,8.2-21.7,19.5-21.7c7.8,0,12.8,3.5,17.6,8.5l9.6-10.4c-6.3-6.9-14.2-11.7-27.1-11.7
		c-20.3,0-35.1,16.2-35.1,35.5c0,19.4,14.9,35.1,35,35.1c13.2,0,21-5.3,27.7-12.7l-9.4-9.2C289.6,82.7,284.3,86.2,276.9,86.2z
		 M544.1,41.6V30.4h-15.5v67.7h15.5V72.4c0-4.5,0.4-8.5,1.7-11.8c4.7-12.3,17.7-15.8,24.4-16.8l-5.3-12.9
		C559.5,31.7,550,34.3,544.1,41.6z M625.2,30.4l-17.4,49.7l-16.2-49.7h-16.5l25.2,67.3l-0.2,0.5c0,0-5.1,13.7-9.7,17
		c-3.5,1.8-11.8,1.7-14.9,1.5v12.7c5.5,0,18.3,0.3,22.4-2.3c5.2-3.3,6.4-4.7,9.9-11.9c3.9-7.8,33.5-84.7,33.5-84.7H625.2z"/>
	<circle class="st1" cx="47" cy="62.2" r="35.8"/>
</g>
</svg>
